<?xml version="1.0" encoding="iso-8859-1"?>
<!-- Generator: Adobe Illustrator 19.0.0, SVG Export Plug-In . SVG Version: 6.00 Build 0)  -->
<svg version="1.1" id="Capa_1" xmlns="http://www.w3.org/2000/svg" xmlns:xlink="http://www.w3.org/1999/xlink" x="0px" y="0px"
	 viewBox="0 0 512.001 512.001" style="enable-background:new 0 0 512.001 512.001;" xml:space="preserve">
<g>
	<g>
		<circle cx="364.158" cy="147.838" r="14.999"/>
	</g>
</g>
<g>
	<g>
		<path d="M505.676,15.888c-0.719-2.191-1.947-4.214-3.604-5.882l-0.001-0.001c-0.006-0.006-0.012-0.012-0.019-0.018
			c-0.005-0.005-0.015-0.015-0.02-0.02c-0.004-0.004-0.008-0.008-0.013-0.013c-0.002-0.002-0.004-0.005-0.007-0.007
			c-0.006-0.006-0.012-0.012-0.018-0.019l-0.001-0.001c-1.661-1.649-3.676-2.879-5.883-3.605
			c-21.763-7.241-45.062-8.283-67.385-3.014c-22.344,5.274-42.734,16.643-58.968,32.876
			c-6.672,6.672-128.605,128.604-134.689,134.689c-10.688,10.688-25.487,16.818-40.595,16.818c-0.017,0-0.027,0-0.044,0
			c-39.35,0-76.356,15.332-104.194,43.17l-47.068,47.068C15.321,305.78-0.009,342.799,0.002,382.163v42.423
			c0,12.021,4.68,23.32,13.176,31.816c7.904,7.904,18.234,12.506,29.314,13.109c0.603,11.081,5.203,21.411,13.108,29.314
			c8.496,8.497,19.796,13.176,31.816,13.176h42.418c0.017,0,0.027,0,0.044,0c39.35,0,76.356-15.332,104.193-43.17l47.068-47.068
			c27.85-27.85,43.182-64.869,43.17-104.233c0-15.114,6.129-29.911,16.817-40.6c45.015-45.015,94.539-94.539,134.689-134.689
			c16.234-16.234,27.602-36.624,32.876-58.968C513.962,60.951,512.919,37.651,505.676,15.888z M60.09,424.586
			c0,8.268-6.827,14.996-15.096,14.996c-4.009,0-7.774-1.559-10.605-4.39c-2.831-2.831-4.391-6.598-4.391-10.606v-42.427
			c-0.009-31.353,12.202-60.835,34.384-83.017l47.068-47.068c22.174-22.174,51.643-34.384,82.987-34.384c0.012,0,0.023,0,0.035,0
			c23.01,0,45.538-9.332,61.81-25.604l1.823-1.823l21.211,21.211l-5.479,5.479c-21.612,19.823-49.729,30.727-79.366,30.727
			c-23.01,0-45.54,9.332-61.81,25.605l-47.068,47.067c-16.272,16.271-25.504,38.801-25.504,61.81V424.586z M242.198,269.841
			c-5.175,15.18-7.872,31.257-7.872,47.688c0,15.114-6.129,29.912-16.818,40.6l-47.068,47.068
			c-10.688,10.688-25.487,16.818-40.6,16.818H89.988v-39.852c0-15.114,6.129-29.911,16.818-40.6l47.069-47.068
			c10.687-10.688,25.486-16.818,40.599-16.818C210.928,277.677,227.019,274.993,242.198,269.841z M319.917,255.719
			c-16.272,16.271-25.604,38.801-25.604,61.815c0.009,31.353-12.202,60.836-34.384,83.018l-47.068,47.068
			c-22.174,22.173-51.642,34.384-82.987,34.384c-0.012,0-0.023,0-0.035,0H87.417c-4.008,0-7.774-1.559-10.606-4.391
			c-2.831-2.831-4.39-6.596-4.39-10.605c0-8.269,6.727-15.096,14.996-15.096h42.423c23.01,0,45.539-9.232,61.81-25.504
			l47.068-47.068c16.271-16.271,25.605-38.801,25.605-61.811c0-30.053,11.318-58.618,31.868-80.433
			c0.153-0.163,0.285-0.337,0.43-0.504l10.121-9.613h42.423L319.917,255.719z M417.192,73.601
			c-25.609,25.609-28.787,65.282-9.538,94.383l-28.492,28.998h-72.419l-27.424-27.932C290.212,158.158,380.37,67.999,390.973,57.397
			c18.852-18.852,44.105-28.453,69.8-27.377L417.192,73.601z M454.606,121.03l-24.986,24.986
			c-7.966-16.722-5.045-37.378,8.781-51.204l43.581-43.581C483.055,76.918,473.458,102.178,454.606,121.03z"/>
	</g>
</g>
<g>
</g>
<g>
</g>
<g>
</g>
<g>
</g>
<g>
</g>
<g>
</g>
<g>
</g>
<g>
</g>
<g>
</g>
<g>
</g>
<g>
</g>
<g>
</g>
<g>
</g>
<g>
</g>
<g>
</g>
</svg>
