<?xml version="1.0" encoding="iso-8859-1"?>
<!-- Generator: Adobe Illustrator 19.0.0, SVG Export Plug-In . SVG Version: 6.00 Build 0)  -->
<svg version="1.1" id="Capa_1" xmlns="http://www.w3.org/2000/svg" xmlns:xlink="http://www.w3.org/1999/xlink" x="0px" y="0px"
	 viewBox="0 0 512.001 512.001" style="enable-background:new 0 0 512.001 512.001;" xml:space="preserve">
<g>
	<g>
		<path d="M300.68,256.001c-6.515,0-12.773-1.176-18.538-3.792l-1.029,1.212c-20.695,24.404-31.633,53.862-31.642,85.173
			c0,19.059-7.738,37.734-21.215,51.211l-40.983,40.989c-13.477,13.477-32.151,21.213-51.211,21.213H93.595
			c-16.417,0.022-29.934,13.244-29.954,30.038c0.02,16.479,13.319,29.934,29.996,29.956h42.426
			c35.363,0.02,68.611-13.757,93.636-38.782l40.985-40.989c25.025-25.025,38.8-58.273,38.78-93.636
			c0-19.058,7.738-37.733,21.213-51.209l31.075-31.384H300.68z"/>
	</g>
</g>
<g>
	<g>
		<path d="M226.434,200.709c-3.983-3.981-6.936-8.575-9.111-13.431c-12.57,9.613-28.017,15.255-43.922,15.255
			c-35.363-0.02-68.611,13.755-93.636,38.78L38.78,282.3C13.755,307.325-0.02,340.576,0,375.937v42.468
			c0.022,16.419,13.244,29.934,30.039,29.956c16.479-0.022,29.934-13.319,29.956-29.996v-42.427
			c0-19.058,7.736-37.734,21.213-51.209l40.983-40.989c13.477-13.477,32.151-21.213,51.211-21.213
			c31.159,0,60.441-11.049,84.153-30.696L226.434,200.709z"/>
	</g>
</g>
<g>
	<g>
		<path d="M417.353,73.43l69.67-69.67c-42.001-10.505-86.096,1.241-117.1,32.247L332.5,73.43l-84.853,84.853
			c-5.863,5.863-5.863,15.35,0,21.213l42.426,42.427c2.818,2.816,6.63,4.078,10.607,4.078h84.853c3.977,0,7.789-1.262,10.607-4.078
			l31.818-31.82l-10.605-10.607C388.113,150.256,388.113,102.67,417.353,73.43z M374.935,158.283
			c-5.859,5.859-15.357,5.858-21.215,0c-5.858-5.859-5.858-15.355,0-21.213c5.858-5.858,15.355-5.859,21.215,0
			C380.793,142.927,380.793,152.425,374.935,158.283z"/>
	</g>
</g>
<g>
	<g>
		<path d="M508.238,24.971l-69.672,69.672c-17.547,17.546-17.547,46.093,0,63.64l10.607,10.607l26.816-26.818
			C506.994,111.069,518.75,66.964,508.238,24.971z"/>
	</g>
</g>
<g>
</g>
<g>
</g>
<g>
</g>
<g>
</g>
<g>
</g>
<g>
</g>
<g>
</g>
<g>
</g>
<g>
</g>
<g>
</g>
<g>
</g>
<g>
</g>
<g>
</g>
<g>
</g>
<g>
</g>
</svg>
