<svg id="Capa_1" enable-background="new 0 0 512 512" height="512" viewBox="0 0 512 512" width="512" xmlns="http://www.w3.org/2000/svg"><g><g><path d="m329.128 363.43c0-14.601 11.836-26.437 26.437-26.437 10.924 0 20.299 6.627 24.329 16.079 4.834-5.282 11.783-8.597 19.507-8.597 14.601 0 26.437 11.836 26.437 26.437 0 2.264-.286 4.461-.821 6.558.621-.043 1.246-.074 1.878-.074 14.601 0 26.437 11.836 26.437 26.437s-11.836 26.437-26.437 26.437h-116.525" fill="#cbafea"/><path d="m382.025 370.903c0 2.27.28 4.47.82 6.56-.62-.04-1.25-.07-1.88-.07-14.6 0-26.44 11.84-26.44 26.44s11.84 26.43 26.44 26.43h-70.59l18.76-66.84c0-14.6 11.83-26.43 26.43-26.43 10.93 0 20.3 6.62 24.33 16.07 4.84-5.28 11.79-8.59 19.51-8.59 1.54 0 3.06.13 4.53.39-12.45 2.14-21.91 12.98-21.91 26.04z" fill="#bc95e2"/><path d="m180.68 32.512h41.9v89.747h-41.9z" fill="#f9f6f6"/><path d="m180.68 32.512h41.9v30.23h-41.9z" fill="#dddaec"/><path d="m180.68 32.512h20.95v89.747h-20.95z" fill="#dddaec"/><path d="m249.297 111.532h-95.335c-17.752 0-32.142 14.39-32.142 32.142v43.677h159.619v-43.677c0-17.752-14.391-32.142-32.142-32.142z" fill="#f9f6f6"/><path d="m203.18 111.534c-17.75 0-32.14 14.39-32.14 32.14v43.68h-49.22v-43.68c0-17.75 14.4-32.14 32.15-32.14z" fill="#dddaec"/><path d="m255.103 161.413h-106.947c-51.46 0-93.176 41.716-93.176 93.176v206.041c0 24.227 19.64 43.867 43.867 43.867h205.566c24.227 0 43.867-19.64 43.867-43.867v-206.042c-.001-51.459-41.717-93.175-93.177-93.175z" fill="#b3e59f"/><path d="m179.979 504.497h-81.139c-24.22 0-43.86-19.64-43.86-43.87v-206.039c0-51.46 41.71-93.179 93.169-93.179h81.139c-51.46 0-93.169 41.72-93.169 93.179v206.039c0 24.23 19.64 43.87 43.86 43.87z" fill="#95d6a4"/><path d="m144.766 25.37c0 9.869 8.001 17.87 17.87 17.87h125.423v27.723h36.501v-45.593c0-9.869-8-17.87-17.87-17.87h-144.055c-9.869 0-17.869 8-17.869 17.87z" fill="#f9f6f6"/><path d="m197.215 43.239h-34.58c-9.87 0-17.87-8-17.87-17.87s8-17.87 17.87-17.87h34.58c-9.87 0-17.87 8-17.87 17.87s8 17.87 17.87 17.87z" fill="#dddaec"/><path d="m302.678 424.783h138.432c22.012 0 39.857 17.844 39.857 39.857 0 22.012-17.844 39.857-39.857 39.857h-138.432c-22.012 0-39.857-17.844-39.857-39.857 0-22.012 17.845-39.857 39.857-39.857z" fill="#ffe07d"/><path d="m371.851 504.5h-69.17c-22.01 0-39.86-17.84-39.86-39.86 0-11 4.46-20.97 11.68-28.18 7.21-7.21 17.17-11.67 28.18-11.67h69.17c-11.01 0-20.98 4.46-28.19 11.67s-11.67 17.18-11.67 28.18c0 22.02 17.84 39.86 39.86 39.86z" fill="#ffd064"/><path d="m265.299 381.638c-35.16 35.17-92.179 35.17-127.339 0-.63-.63-1.24-1.26-1.84-1.9-32.71-34.65-32.71-88.88 0-123.539.6-.64 1.21-1.27 1.84-1.9 35.16-35.16 92.179-35.16 127.339 0 35.17 35.169 35.17 92.179 0 127.339z" fill="#f9f6f6"/><path d="m136.12 256.198v123.539c-32.709-34.65-32.709-88.879 0-123.539z" fill="#dddaec"/><g><g fill="#30579d"><circle cx="201.632" cy="340.616" r="27.931"/><circle cx="201.632" cy="280.5" r="13.104"/><g><circle cx="152.781" cy="305.788" r="13.104"/><circle cx="250.484" cy="305.788" r="13.104"/></g></g></g><g fill="#ffe07d"><path d="m467.494 258.181h-8.48v-8.48c0-8.815-7.146-15.962-15.962-15.962-8.815 0-15.962 7.146-15.962 15.962v8.48h-8.48c-8.815 0-15.962 7.146-15.962 15.962 0 8.815 7.146 15.962 15.962 15.962h8.48v8.48c0 8.816 7.146 15.962 15.962 15.962 8.815 0 15.962-7.146 15.962-15.962v-8.48h8.48c8.815 0 15.962-7.146 15.962-15.962 0-8.815-7.146-15.962-15.962-15.962z"/><path d="m93.388 186.353h-8.48v-8.48c0-8.815-7.146-15.962-15.962-15.962-8.815 0-15.962 7.146-15.962 15.962v8.48h-8.48c-8.815 0-15.962 7.146-15.962 15.962 0 8.815 7.146 15.962 15.962 15.962h8.48v8.48c0 8.816 7.146 15.962 15.962 15.962 8.815 0 15.962-7.146 15.962-15.962v-8.48h8.48c8.815 0 15.962-7.146 15.962-15.962s-7.146-15.962-15.962-15.962z"/></g></g><g><path d="m380.203 191.858h9.127v9.127c0 4.142 3.358 7.5 7.5 7.5s7.5-3.358 7.5-7.5v-9.127h9.127c4.142 0 7.5-3.358 7.5-7.5s-3.358-7.5-7.5-7.5h-9.127v-9.127c0-4.142-3.358-7.5-7.5-7.5s-7.5 3.358-7.5 7.5v9.127h-9.127c-4.142 0-7.5 3.358-7.5 7.5s3.358 7.5 7.5 7.5z"/><path d="m456.773 419.953c2.631-4.869 4.055-10.369 4.055-16.116 0-16.514-11.851-30.31-27.492-33.327-.213-18.527-15.355-33.533-33.938-33.533-6.245 0-12.329 1.738-17.585 4.92-6.298-7.68-15.769-12.331-26.034-12.394v-74.915c0-43.648-27.922-80.891-66.839-94.822v-16.097c0-21.857-17.783-39.64-39.64-39.64h-19.22v-53.29h50.479v20.223c0 4.142 3.358 7.5 7.5 7.5h36.501c4.142 0 7.5-3.358 7.5-7.5v-45.592c0-13.989-11.381-25.37-25.37-25.37h-144.055c-13.989 0-25.37 11.381-25.37 25.37s11.381 25.37 25.37 25.37h10.544v53.29h-17.179c-4.142 0-7.5 3.358-7.5 7.5s3.358 7.5 7.5 7.5h93.3c13.586 0 24.64 11.054 24.64 24.64v12.015c-6.106-1.161-12.402-1.775-18.84-1.775h-106.94c-6.377 0-12.68.599-18.841 1.767v-12.006c0-5.685 1.985-11.238 5.59-15.635 2.626-3.204 2.158-7.929-1.045-10.555-3.205-2.626-7.929-2.158-10.555 1.045-5.797 7.072-8.99 16.002-8.99 25.145v16.099c-8.05 2.871-15.721 6.76-22.831 11.616-2.822-9.79-11.856-16.973-22.542-16.973-12.937 0-23.462 10.525-23.462 23.462v.98h-.979c-12.937 0-23.462 10.525-23.462 23.462s10.525 23.462 23.462 23.462h.979v.979c0 4.346 1.192 8.418 3.261 11.912-.835 5.214-1.265 10.554-1.265 15.92v206.039c0 28.325 23.044 51.37 51.37 51.37l342.26.001c6.298 0 12.41-1.217 18.167-3.618 3.823-1.594 5.63-5.986 4.036-9.809-1.594-3.824-5.988-5.628-9.809-4.036-3.918 1.634-8.088 2.462-12.394 2.462l-138.545-.003c-17.791-.063-32.245-14.552-32.245-32.357 0-8.646 3.367-16.769 9.487-22.88 6.105-6.113 14.229-9.48 22.874-9.48h138.43c17.844 0 32.36 14.517 32.36 32.36 0 4.539-.918 8.919-2.73 13.018-1.674 3.789.04 8.217 3.828 9.892 3.79 1.674 8.218-.039 9.892-3.828 2.661-6.021 4.01-12.441 4.01-19.082-.001-20.626-13.26-38.204-31.698-44.686zm-304.508-394.583c0-5.718 4.652-10.37 10.37-10.37h144.055c5.718 0 10.37 4.652 10.37 10.37v38.092h-21.501v-20.223c0-4.142-3.358-7.5-7.5-7.5h-125.424c-5.718 0-10.37-4.652-10.37-10.369zm35.914 25.369h26.9v53.29h-26.9zm184.821 305.27c1 2.346 3.124 4.022 5.638 4.451 2.513.428 5.073-.45 6.794-2.331 3.577-3.91 8.667-6.152 13.966-6.152 10.443 0 18.94 8.492 18.94 18.93 0 1.586-.199 3.172-.59 4.715-.59 2.326-.032 4.793 1.501 6.638 1.534 1.846 3.868 2.845 6.251 2.691.46-.03.921-.054 1.396-.054 10.438 0 18.93 8.497 18.93 18.94 0 5.125-2.019 9.905-5.605 13.442h-84.445v-72.774c7.525.083 14.269 4.576 17.224 11.504zm-328.495-145.232c-4.666 0-8.462-3.796-8.462-8.462s3.796-8.462 8.462-8.462h8.479c4.142 0 7.5-3.358 7.5-7.5v-8.48c0-4.666 3.796-8.462 8.462-8.462s8.462 3.796 8.462 8.462v8.48c0 4.142 3.358 7.5 7.5 7.5h8.48c4.666 0 8.462 3.796 8.462 8.462s-3.796 8.462-8.462 8.462h-8.48c-4.142 0-7.5 3.358-7.5 7.5v8.479c0 4.666-3.796 8.462-8.462 8.462s-8.462-3.796-8.462-8.462v-8.479c0-4.142-3.358-7.5-7.5-7.5zm224.695 220.375c-8.951 8.938-13.881 20.831-13.881 33.487 0 12.504 4.879 23.883 12.823 32.357h-169.291c-20.055 0-36.37-16.315-36.37-36.37v-206.038c0-1.751.072-3.495.177-5.233 2.003.558 4.111.863 6.289.863 12.937 0 23.462-10.525 23.462-23.462v-.979h.98c12.937 0 23.462-10.525 23.462-23.462 0-9.199-5.324-17.174-13.05-21.017 13.273-8.054 28.548-12.389 44.36-12.389h106.939c47.244 0 85.68 38.436 85.68 85.68v162.691h-38.1c-12.656-.001-24.548 4.929-33.48 13.872z"/><path d="m132.656 248.996c-38.032 38.033-38.032 99.916 0 137.948 18.424 18.424 42.919 28.57 68.974 28.57s50.55-10.146 68.974-28.57c18.424-18.423 28.57-42.919 28.57-68.974s-10.146-50.55-28.57-68.974c-38.033-38.033-99.916-38.033-137.948 0zm127.341 127.341c-15.59 15.59-36.319 24.177-58.367 24.177s-42.777-8.586-58.368-24.177c-32.184-32.184-32.184-84.551 0-116.735 16.094-16.094 37.228-24.138 58.368-24.138 21.135 0 42.277 8.048 58.367 24.138 15.59 15.591 24.177 36.319 24.177 58.368s-8.587 42.777-24.177 58.367z"/><path d="m201.633 305.184c-19.537 0-35.432 15.895-35.432 35.432s15.895 35.432 35.432 35.432 35.431-15.895 35.431-35.432-15.895-35.432-35.431-35.432zm0 55.863c-11.266 0-20.432-9.166-20.432-20.432s9.166-20.432 20.432-20.432 20.431 9.166 20.431 20.432-9.166 20.432-20.431 20.432z"/><path d="m201.633 301.104c11.361 0 20.604-9.243 20.604-20.604s-9.243-20.604-20.604-20.604-20.604 9.243-20.604 20.604 9.242 20.604 20.604 20.604zm0-26.208c3.09 0 5.604 2.514 5.604 5.604s-2.514 5.604-5.604 5.604-5.604-2.514-5.604-5.604 2.514-5.604 5.604-5.604z"/><path d="m173.385 305.788c0-11.361-9.243-20.604-20.604-20.604s-20.604 9.243-20.604 20.604 9.243 20.604 20.604 20.604 20.604-9.244 20.604-20.604zm-20.604 5.603c-3.09 0-5.604-2.514-5.604-5.604s2.514-5.604 5.604-5.604 5.604 2.514 5.604 5.604-2.514 5.604-5.604 5.604z"/><path d="m229.88 305.788c0 11.361 9.243 20.604 20.604 20.604s20.604-9.243 20.604-20.604-9.243-20.604-20.604-20.604-20.604 9.243-20.604 20.604zm26.208 0c0 3.09-2.514 5.604-5.604 5.604s-5.604-2.514-5.604-5.604 2.514-5.604 5.604-5.604 5.604 2.514 5.604 5.604z"/><path d="m419.591 250.681h-.98c-12.937 0-23.462 10.525-23.462 23.462s10.525 23.462 23.462 23.462h.98v.98c0 12.937 10.525 23.461 23.462 23.461s23.462-10.525 23.462-23.461v-.98h.979c12.937 0 23.462-10.525 23.462-23.462s-10.525-23.462-23.462-23.462h-.979v-.979c0-12.937-10.525-23.462-23.462-23.462s-23.462 10.525-23.462 23.462zm7.5 15c4.142 0 7.5-3.358 7.5-7.5v-8.479c0-4.666 3.796-8.462 8.462-8.462s8.462 3.796 8.462 8.462v8.479c0 4.142 3.358 7.5 7.5 7.5h8.479c4.666 0 8.462 3.796 8.462 8.462s-3.796 8.462-8.462 8.462h-8.479c-4.142 0-7.5 3.358-7.5 7.5v8.48c0 4.666-3.796 8.461-8.462 8.461s-8.462-3.796-8.462-8.461v-8.48c0-4.142-3.358-7.5-7.5-7.5h-8.48c-4.666 0-8.462-3.796-8.462-8.462s3.796-8.462 8.462-8.462z"/></g></g></svg>