<svg id="Capa_1" enable-background="new 0 0 480.03 480.03" height="512" viewBox="0 0 480.03 480.03" width="512" xmlns="http://www.w3.org/2000/svg"><path d="m464.012 305.406v-217.376c0-2.675-1.337-5.172-3.562-6.656l-104.621-69.744c-10.635-11.505-27.464-14.864-41.7-8.321l-16.27 7.426-.684-1.014c-2.47-3.663-7.442-4.63-11.105-2.16l-26.531 17.897c-3.663 2.47-4.63 7.442-2.16 11.105l13.933 20.667c-6.782 5.101-12.688 11.272-17.486 18.272l13.186 9.059c3.667-5.339 8.145-10.073 13.271-14.031l18.9 28.022-14.493-5.235c-3.099 8.565-4.682 17.605-4.678 26.713h16c-.001-7.109 1.211-14.166 3.585-20.867l2.513 3.726c2.47 3.66 7.438 4.627 11.1 2.161l26.53-17.892c3.664-2.47 4.631-7.442 2.161-11.105 0 0 0 0 0-.001l-.685-1.014 8.968-8.5 65.828 41.884v195.608h-48c-.02-17.665-14.335-31.98-32-32v-48c0-5.321-.439-10.633-1.311-15.882 14.754-11.588 23.902-28.889 25.174-47.606.091-1.414.137-2.858.137-4.292v-20.22c0-4.418-3.582-8-8-8h-48c-1.731.001-3.415.562-4.8 1.6l-13.379 10.03c-28.58-15.505-63.064-15.505-91.644 0l-13.377-10.03c-1.385-1.038-3.069-1.599-4.8-1.6h-48c-4.418 0-8 3.582-8 8v20.22c0 1.434.046 2.878.137 4.3 1.273 18.715 10.422 36.013 25.174 47.6-.872 5.248-1.311 10.56-1.311 15.88v48c-17.665.02-31.98 14.335-32 32h-88c-13.255.005-23.996 10.755-23.99 24.01.004 10.163 6.41 19.222 15.99 22.614v41.376c.055 48.578 39.422 87.945 88 88h272c48.578-.055 87.945-39.422 88-88v-41.362c12.499-4.421 19.047-18.137 14.626-30.636-2.417-6.834-7.793-12.209-14.626-14.626zm-153.11-218.095-35.785-53.061 13.266-8.947 35.784 53.062zm32.3-36.188-11.049 10.467-25.224-37.4 13.844-6.318c10.214-4.663 22.275-.163 26.938 10.052 3.608 7.904 1.795 17.227-4.512 23.202zm17.603 3.207c2.963-5.18 4.598-11.013 4.759-16.979l82.448 54.96v211.719h-16v-200c.001-2.734-1.394-5.28-3.7-6.75zm-24.793 233.7c8.832.01 15.99 7.168 16 16-.005 4.416-3.584 7.995-8 8h-16c-4.416-.005-7.995-3.584-8-8 .01-8.832 7.167-15.99 16-16zm-96-15.274c10.285 4.036 21.715 4.036 32 0v15.274c16.836-.021 31.864-10.564 37.612-26.388 3.723-1.353 7.224-3.251 10.388-5.634v20.327c-9.894 5.715-15.991 16.27-16 27.695h-128c-.009-11.425-6.106-21.98-16-27.695v-20.327c3.164 2.383 6.665 4.281 10.388 5.634 5.748 15.824 20.776 26.367 37.612 26.388v-15.274c10.284 4.036 21.715 4.036 32 0zm-8-40.726v-8h16v8c0 4.418-3.582 8-8 8s-8-3.582-8-8zm98.074-41.238c-2.995-8.096-7.065-15.752-12.101-22.762h24.607c-2.106 8.551-6.418 16.399-12.506 22.762zm-194.074-46.762h37.334l15.487 11.611c2.641 1.98 6.226 2.135 9.028.39 25.822-16 58.478-16 84.3 0 2.802 1.745 6.387 1.59 9.028-.39l15.489-11.611h37.334v8h-32.73c-2.165 0-4.238.877-5.745 2.432l-5.438 5.61c-2.914 3.006-3.018 7.751-.238 10.881 13.011 14.615 20.185 33.509 20.151 53.077.002 6.824-2.909 13.325-8 17.869v-9.869h-16v16c-.017 12.496-9.608 22.893-22.062 23.915.55-.247 1.1-.49 1.64-.76l-7.156-14.31c-6.34 3.149-13.639 3.774-20.422 1.747v-3.968c9.581-3.4 15.987-12.458 16-22.624v-16c0-4.418-3.582-8-8-8h-32c-4.418 0-8 3.582-8 8v16c.013 10.166 6.419 19.224 16 22.624v3.976c-6.783 2.024-14.082 1.398-20.422-1.75l-7.156 14.31c.54.27 1.09.513 1.64.76-12.456-1.023-22.048-11.423-22.062-23.92v-16h-16v9.869c-5.091-4.544-8.002-11.045-8-17.869-.033-19.567 7.14-38.462 20.151-53.077 2.78-3.13 2.676-7.875-.238-10.881l-5.438-5.61c-1.507-1.555-3.58-2.432-5.745-2.432h-32.73zm1.419 24h24.608c-5.036 7.011-9.105 14.666-12.1 22.762-6.09-6.362-10.403-14.211-12.508-22.762zm6.581 120c8.832.01 15.99 7.168 16 16-.005 4.416-3.584 7.995-8 8h-16c-4.416-.005-7.995-3.584-8-8 .01-8.832 7.167-15.99 16-16zm304 104c-.045 39.746-32.254 71.955-72 72h-272c-39.746-.045-71.955-32.254-72-72v-8h40c4.418 0 8-3.582 8-8s-3.582-8-8-8h-40v-16h416zm13.674-58.347c-1.503 1.507-3.546 2.352-5.674 2.347h-432c-4.418 0-8-3.582-8-8s3.582-8 8-8h94.131c4.544 5.091 11.045 8.002 17.869 8h16c6.824.002 13.325-2.909 17.869-8h140.262c4.544 5.091 11.045 8.002 17.869 8h16c6.824.002 13.325-2.909 17.869-8h94.131c4.423.005 8.005 3.594 8.001 8.017-.003 2.112-.839 4.137-2.327 5.636z"/><path d="m199.362 188.03h25.298v16.001h-25.298z" transform="matrix(.949 -.316 .316 .949 -51.115 77.113)"/><path d="m260.011 183.382h16.001v25.298h-16.001z" transform="matrix(.316 -.949 .949 .316 -2.713 388.298)"/><path d="m200.012 120.03h16c-.004-7.257 1.256-14.458 3.725-21.282l-15.049-5.436c-3.099 8.567-4.682 17.608-4.676 26.718z"/><path d="m238.196 52.59c-9.681 5.788-17.993 13.604-24.365 22.911l13.19 9.058c5.075-7.413 11.696-13.639 19.407-18.249l5.7-3.42-8.232-13.72z"/><path d="m240.012 120.03h16c-.004-7.257 1.256-14.458 3.725-21.282l-15.049-5.436c-3.099 8.567-4.682 17.608-4.676 26.718z"/><path d="m24.012 248.03c0 22.091 17.909 40 40 40s40-17.909 40-40-17.909-40-40-40c-22.082.025-39.976 17.919-40 40zm40-24c13.255 0 24 10.745 24 24s-10.745 24-24 24-24-10.745-24-24c.015-13.249 10.751-23.985 24-24z"/><path d="m32.012 136.03c-17.673 0-32 14.327-32 32s14.327 32 32 32 32-14.327 32-32c-.02-17.665-14.336-31.98-32-32zm0 48c-8.837 0-16-7.163-16-16s7.163-16 16-16 16 7.163 16 16c-.011 8.832-7.168 15.989-16 16z"/><path d="m352.012 240.03c0 13.255 10.745 24 24 24s24-10.745 24-24-10.745-24-24-24c-13.249.015-23.985 10.751-24 24zm24-8c4.418 0 8 3.582 8 8s-3.582 8-8 8-8-3.582-8-8c.005-4.416 3.583-7.995 8-8z"/><path d="m104.012 384.03h8c4.418 0 8-3.582 8-8s-3.582-8-8-8h-8c-4.418 0-8 3.582-8 8s3.581 8 8 8z"/><path d="m240.012 400.03c4.418 0 8-3.582 8-8v-8c0-4.418-3.582-8-8-8s-8 3.582-8 8v8c0 4.418 3.581 8 8 8z"/><path d="m216.012 416.03c4.418 0 8-3.582 8-8v-8c0-4.418-3.582-8-8-8s-8 3.582-8 8v8c0 4.418 3.581 8 8 8z"/><path d="m264.012 416.03c4.418 0 8-3.582 8-8v-8c0-4.418-3.582-8-8-8s-8 3.582-8 8v8c0 4.418 3.581 8 8 8z"/><path d="m216.012 432.03c0 4.418 3.582 8 8 8h32c4.418 0 8-3.582 8-8s-3.582-8-8-8h-8v-8c0-4.418-3.582-8-8-8s-8 3.582-8 8v8h-8c-4.419 0-8 3.582-8 8z"/><path d="m368.012 448.03c35.33-.04 63.96-28.67 64-64 0-4.418-3.582-8-8-8s-8 3.582-8 8c-.029 26.498-21.502 47.971-48 48-4.418 0-8 3.582-8 8s3.581 8 8 8z"/><path d="m328.012 448.03h8c4.418 0 8-3.582 8-8s-3.582-8-8-8h-8c-4.418 0-8 3.582-8 8s3.581 8 8 8z"/></svg>