<svg id="Capa_1" enable-background="new 0 0 506.019 506.019" height="512" viewBox="0 0 506.019 506.019" width="512" xmlns="http://www.w3.org/2000/svg"><g><path d="m397.559 481.448c.292-4.139.443-8.32.443-12.541 0-88.719-65.729-160.641-146.811-160.641-81.081 0-146.811 71.922-146.811 160.641 0 4.221.151 8.402.443 12.541z" fill="#e9a385"/><path d="m316.796 481.448c.466-5.741.711-11.613.711-17.588 0-66.258-29.691-119.971-66.316-119.971s-66.316 53.713-66.316 119.971c0 5.975.245 11.847.712 17.588z" fill="#f5dbb6"/><path d="m397.559 481.448c.292-4.139.443-8.32.443-12.541 0-88.719-65.729-160.641-146.811-160.641-4.16 0-8.278.2-12.351.571 60.008 4.776 106.615 40.014 106.615 82.799 0 46.044-53.966 83.369-120.537 83.369-52.327 0-96.849-23.067-113.513-55.297-4.555 15.507-7.024 32.036-7.024 49.198 0 4.221.151 8.402.443 12.541h292.735z" fill="#d57b84"/><path d="m316.746 445.636c-22.109 17.969-55.041 29.37-91.829 29.37-14.002 0-27.447-1.652-39.947-4.689.111 3.762.319 7.469.616 11.131h131.209c.466-5.741.711-11.613.711-17.588.001-6.196-.259-12.282-.76-18.224z" fill="#dca3b4"/><path d="m405.767 179.203c16.091-49.736 17.321-97.649 2.695-143.614-3.753-11.794-18.981-14.904-26.999-5.475l-51.133 60.136c-3.707 4.359-9.823 5.745-15.072 3.465-19.112-8.301-39.831-12.951-61.571-12.951-22.888 0-44.91 5.156-65.257 14.3-5.262 2.365-11.449.982-15.186-3.413l-52.326-61.538c-8.023-9.435-23.25-6.311-27.004 5.492-14.773 46.438-13.363 94.863 3.205 145.148-16.607 29.62-26.233 63.224-26.233 97.075 0 84.456 159.093 130.388 181.318 130.388s179.289-45.932 179.289-130.388c.002-34.442-9.362-68.631-25.726-98.625z" fill="#e9a385"/><path d="m377.167 192.934c-17.675-40.001-69.486-67.208-73.763-69.049-15.576-6.705-32.462-10.461-50.179-10.461-18.653 0-36.601 4.165-53.183 11.55-4.288 1.91-49.049 18.451-74.416 69.213-13.535 23.924-21.379 51.066-21.379 78.408 0 68.217 129.658 105.316 147.771 105.316s146.117-37.1 146.117-105.316c0-27.82-7.631-55.435-20.968-79.661zm-172.89 64.407c-7.195 24.857-29.133 40.346-48.998 34.596-19.865-5.751-30.136-30.563-22.94-55.421 7.195-24.856 29.132-40.346 48.998-34.596 19.864 5.751 30.135 30.563 22.94 55.421zm142.882 34.596c-19.865 5.75-41.802-9.739-48.998-34.596s3.075-49.67 22.94-55.421c19.865-5.75 41.802 9.739 48.998 34.596s-3.075 49.67-22.94 55.421z" fill="#a2e9c4"/><g><path d="m168.803 263.795c-12.809 0-23.23-10.421-23.23-23.23 0-3.313 2.686-6 6-6s6 2.687 6 6c0 6.192 5.038 11.229 11.23 11.229s11.23-5.037 11.23-11.229c0-3.313 2.686-6 6-6 3.313 0 6 2.687 6 6 0 12.809-10.42 23.23-23.23 23.23z" fill="#be545e"/></g><g><path d="m333.578 263.795c-12.809 0-23.229-10.421-23.229-23.23 0-3.313 2.687-6 6-6 3.314 0 6 2.687 6 6 0 6.192 5.037 11.229 11.229 11.229s11.23-5.037 11.23-11.229c0-3.313 2.686-6 6-6s6 2.687 6 6c.001 12.809-10.42 23.23-23.23 23.23z" fill="#be545e"/></g><path d="m269.179 263.334c0 9.934-14.242 17.987-17.988 17.987s-17.987-8.053-17.987-17.987 8.053-12.807 17.987-12.807c9.935 0 17.988 2.873 17.988 12.807z" fill="#518699"/><g><path d="m224.005 305.416c-3.313 0-6-2.686-6-6 0-3.313 2.687-6 6-6 11.583 0 21.006-9.423 21.006-21.006 0-3.314 2.687-6 6-6 3.314 0 6 2.686 6 6 0 18.199-14.806 33.006-33.006 33.006z" fill="#518699"/></g><g><path d="m278.377 305.416c-18.199 0-33.006-14.807-33.006-33.006 0-3.314 2.687-6 6-6 3.314 0 6 2.686 6 6 0 11.583 9.423 21.006 21.006 21.006 3.314 0 6 2.687 6 6 0 3.314-2.686 6-6 6z" fill="#518699"/></g><g><path d="m118.989 141.226c-2.975 0-5.556-2.21-5.944-5.238-.421-3.287 1.901-6.293 5.188-6.714l10.491-1.345c-9.703-14.836-16.714-35.204-17.07-36.248-1.069-3.136.605-6.544 3.741-7.614 3.136-1.067 6.545.604 7.616 3.739.098.288 9.945 28.873 21.177 40.594 1.567 1.636 2.08 4.015 1.325 6.15-.754 2.136-2.648 3.664-4.895 3.952l-20.86 2.674c-.258.033-.515.05-.769.05z" fill="#be545e"/></g><path d="m405.767 179.203c16.091-49.737 17.321-97.649 2.695-143.614-3.753-11.795-18.981-14.904-26.999-5.475l-9.008 10.594c10.549 37.809 8.889 77.117-4.285 117.838 14.178 25.987 22.291 55.609 22.291 85.45 0 73.174-136.082 112.97-155.338 112.97s-157.096-39.796-157.096-112.97c0-7.65.58-15.283 1.674-22.846-5.711 18.359-8.814 37.478-8.814 56.678 0 84.456 159.093 130.388 181.318 130.388s179.289-45.932 179.289-130.388c.001-34.443-9.363-68.631-25.727-98.625z" fill="#d57b84"/><path d="m390.462 243.996c0 73.174-136.082 112.97-155.338 112.97-12.71 0-77.073-17.342-119.371-50.17 32.123 46.317 121.458 71.115 136.265 71.115 18.113 0 146.117-37.1 146.117-105.316 0-18.668-3.451-37.239-9.742-54.762 1.349 8.646 2.069 17.393 2.069 26.163z" fill="#85adc2"/><g><path d="m383.394 141.226c-.255 0-.512-.017-.771-.05l-20.86-2.674c-2.247-.288-4.14-1.816-4.895-3.952s-.242-4.515 1.325-6.15c11.232-11.721 21.078-40.306 21.176-40.593 1.07-3.136 4.481-4.81 7.616-3.74 3.136 1.07 4.811 4.479 3.741 7.614-.355 1.044-7.366 21.412-17.069 36.248l10.491 1.345c3.287.421 5.61 3.427 5.189 6.714-.388 3.028-2.97 5.238-5.943 5.238z" fill="#be545e"/></g><g><path d="m238.016 160.077c-4.6 0-8.74-3.192-9.76-7.87-1.178-5.396 2.242-10.725 7.638-11.902 7.4-1.614 15.43-2.546 23.868-2.769 5.535-.193 10.115 4.211 10.261 9.731.146 5.521-4.211 10.115-9.732 10.261-7.185.19-13.959.97-20.134 2.317-.717.157-1.435.232-2.141.232z" fill="#fff"/></g><g><path d="m205.776 173.255c-3.412 0-6.737-1.748-8.606-4.894-2.821-4.748-1.259-10.885 3.489-13.705 2.089-1.241 4.176-2.417 6.203-3.494 4.878-2.592 10.931-.738 13.523 4.139 2.591 4.877.738 10.932-4.139 13.523-1.748.929-3.555 1.946-5.372 3.025-1.601.953-3.361 1.406-5.098 1.406z" fill="#fff"/></g><ellipse cx="60.436" cy="383.285" fill="#a2e9c4" rx="17.937" ry="17.937" transform="matrix(.23 -.973 .973 .23 -326.482 354.043)"/><path d="m473.182 343.172 8.214 23.098c.352.989 1.048 1.773 1.927 2.169l20.521 9.246c2.899 1.306 2.899 5.926 0 7.232l-20.521 9.246c-.879.396-1.575 1.18-1.927 2.168l-8.214 23.098c-1.16 3.263-5.265 3.263-6.425 0l-8.214-23.098c-.352-.989-1.048-1.773-1.927-2.168l-20.521-9.246c-2.899-1.306-2.899-5.926 0-7.232l20.521-9.246c.879-.396 1.575-1.18 1.927-2.169l8.214-23.098c1.161-3.263 5.265-3.263 6.425 0z" fill="#cdf4e3"/><path d="m29.124 148.19 6.093 17.133c.261.734.777 1.315 1.429 1.609l15.222 6.858c2.151.969 2.151 4.395 0 5.364l-15.222 6.858c-.652.294-1.168.875-1.429 1.609l-6.093 17.133c-.861 2.421-3.905 2.421-4.766 0l-6.093-17.133c-.261-.734-.777-1.315-1.429-1.609l-15.222-6.858c-2.151-.969-2.151-4.395 0-5.364l15.222-6.858c.652-.294 1.168-.875 1.429-1.609l6.093-17.133c.861-2.421 3.905-2.421 4.766 0z" fill="#cdf4e3"/><circle cx="30.028" cy="338.976" fill="#a2e9c4" r="7.737"/></g></svg>