<svg id="Layer_1" height="512" viewBox="0 0 512 512" width="512" xmlns="http://www.w3.org/2000/svg" data-name="Layer 1"><path d="m308.235 237.985a36.489 36.489 0 1 0 -34.929-25.921l-16.928 16.928-17.513-17.513a36.629 36.629 0 1 0 -27.56 25.7l18.443 18.443-19.071 19.071a36.463 36.463 0 1 0 28.017 25.243l17.684-17.684 17.106 17.106a36.495 36.495 0 1 0 34.751-25.343 36.748 36.748 0 0 0 -6.275.559l-18.952-18.952 18.315-18.315a36.627 36.627 0 0 0 6.912.678zm0-60.985a24.494 24.494 0 0 1 4.9 48.492l.782-.783a18.83 18.83 0 1 0 -26.63-26.629l-3.546 3.545c0-.044 0-.088 0-.132a24.521 24.521 0 0 1 24.494-24.493zm-109.4 47.709.947.947a24.491 24.491 0 1 1 28.46-24.8l-2.776-2.776a18.83 18.83 0 1 0 -26.631 26.629zm4.93 110.291a24.494 24.494 0 0 1 -4.9-48.492l-.026.027a18.83 18.83 0 0 0 26.629 26.63l2.79-2.79v.132a24.521 24.521 0 0 1 -24.493 24.493zm13.215-30.321a6.83 6.83 0 1 1 -9.659-9.659l30.912-30.913 9.66 9.66zm96.941 8.486a18.812 18.812 0 0 0 .176-26.436 24.492 24.492 0 1 1 -30.355 23.778c0-.291.013-.579.023-.868l3.526 3.526a18.855 18.855 0 0 0 26.63 0zm-8.485-18.145a6.83 6.83 0 0 1 -9.66 9.659l-88.455-88.455a6.83 6.83 0 1 1 9.659-9.659zm-30.913-47.883-9.66-9.66 30.913-30.912a6.83 6.83 0 1 1 9.659 9.659z"/><path d="m256 12a244 244 0 0 0 -172.534 416.534 244 244 0 1 0 345.068-345.068 242.4 242.4 0 0 0 -172.534-71.466zm164.049 408.049a232 232 0 0 1 -328.1-328.1 232 232 0 0 1 328.1 328.1z"/><path d="m256 45.5c-116.07 0-210.5 94.43-210.5 210.5s94.43 210.5 210.5 210.5 210.5-94.43 210.5-210.5-94.43-210.5-210.5-210.5zm0 409c-109.453 0-198.5-89.047-198.5-198.5s89.047-198.5 198.5-198.5 198.5 89.047 198.5 198.5-89.047 198.5-198.5 198.5z"/><path d="m256 75c-99.8 0-181 81.2-181 181s81.2 181 181 181 181-81.2 181-181-81.2-181-181-181zm0 350c-93.187 0-169-75.813-169-169s75.813-169 169-169 169 75.813 169 169-75.813 169-169 169z"/><path d="m228.853 128.736a6.062 6.062 0 0 0 1.2-.12c2.184-.443 4.408-.833 6.61-1.161a6 6 0 0 0 -1.77-11.87c-2.406.359-4.836.787-7.223 1.27a6 6 0 0 0 1.185 11.881z"/><path d="m208.32 128.479a6 6 0 0 0 -7.87-3.172 142.374 142.374 0 0 0 -82.801 98.693 6 6 0 1 0 11.693 2.695 130.338 130.338 0 0 1 75.807-90.346 6 6 0 0 0 3.171-7.87z"/></svg>