<svg id="Layer_1" enable-background="new 0 0 512 512" height="512" viewBox="0 0 512 512" width="512" xmlns="http://www.w3.org/2000/svg"><g><path d="m256 .662c-141.159 0-256 114.841-256 256 14.062 339.619 497.99 339.52 512-.002 0-141.157-114.841-255.998-256-255.998zm0 482c-124.617 0-226-101.383-226-226 12.414-299.82 439.632-299.733 452 .002 0 124.615-101.383 225.998-226 225.998z"/><path d="m256 64.928c-105.722 0-191.733 86.011-191.733 191.733 10.532 254.36 372.973 254.286 383.467-.001-.001-105.72-86.012-191.732-191.734-191.732zm0 353.467c-89.18 0-161.733-72.553-161.733-161.733 8.884-214.561 314.615-214.499 323.467.001-.001 89.179-72.554 161.732-161.734 161.732z"/><path d="m256 215.428c25.989 0 47.134-21.144 47.134-47.133-2.589-62.529-91.688-62.51-94.268 0 0 25.989 21.145 47.133 47.134 47.133zm0-64.266c9.447 0 17.134 7.686 17.134 17.133-.941 22.73-33.33 22.723-34.268 0 0-9.447 7.687-17.133 17.134-17.133z"/><path d="m256 297.895c-25.989 0-47.134 21.144-47.134 47.133 2.589 62.529 91.688 62.51 94.268 0 0-25.989-21.145-47.133-47.134-47.133zm0 64.267c-9.447 0-17.134-7.686-17.134-17.133.941-22.73 33.33-22.723 34.268 0 0 9.447-7.687 17.133-17.134 17.133z"/><path d="m167.634 209.528c-25.989 0-47.134 21.144-47.134 47.133 2.589 62.528 91.687 62.511 94.267 0 0-25.988-21.144-47.133-47.133-47.133zm0 64.267c-9.447 0-17.134-7.686-17.134-17.133.941-22.729 33.329-22.724 34.267 0 0 9.447-7.686 17.133-17.133 17.133z"/><path d="m344.366 209.528c-25.989 0-47.133 21.144-47.133 47.133 2.589 62.529 91.687 62.51 94.267 0 0-25.988-21.145-47.133-47.134-47.133zm0 64.267c-9.447 0-17.133-7.686-17.133-17.133.941-22.73 33.329-22.723 34.267 0 0 9.447-7.687 17.133-17.134 17.133z"/></g></svg>