<?xml version="1.0" encoding="iso-8859-1"?>
<!-- Generator: Adobe Illustrator 19.0.0, SVG Export Plug-In . SVG Version: 6.00 Build 0)  -->
<svg version="1.1" id="Capa_1" xmlns="http://www.w3.org/2000/svg" xmlns:xlink="http://www.w3.org/1999/xlink" x="0px" y="0px"
	 viewBox="0 0 512 512" style="enable-background:new 0 0 512 512;" xml:space="preserve">
<path style="fill:#ED3800;" d="M399.308,112.693C361.029,74.415,310.134,53.334,256,53.334s-105.028,21.081-143.307,59.359
	S53.333,201.866,53.333,256s21.081,105.028,59.36,143.307S201.866,458.666,256,458.666s105.028-21.081,143.307-59.359
	c38.278-38.279,59.36-89.173,59.36-143.307S437.586,150.972,399.308,112.693z"/>
<path style="fill:#BD0017;" d="M256,458.667c54.134,0,105.028-21.081,143.307-59.359c38.278-38.279,59.36-89.173,59.36-143.307
	s-21.081-105.028-59.36-143.307C361.029,74.415,310.134,53.334,256,53.334"/>
<path style="fill:#FF4F19;" d="M437.02,74.981C388.668,26.629,324.38,0,256,0S123.333,26.628,74.981,74.98
	C26.629,123.333,0,187.62,0,256s26.629,132.668,74.981,181.02S187.62,512,256,512s132.667-26.629,181.02-74.98
	C485.372,388.668,512,324.38,512,256S485.372,123.333,437.02,74.981z M256,437.333c-100.148,0-181.333-81.186-181.333-181.333
	c0-100.148,81.186-181.333,181.333-181.333S437.333,155.853,437.333,256C437.333,356.148,356.148,437.333,256,437.333z"/>
<g>
	<circle style="fill:#FFFFFF;" cx="202.67" cy="202.67" r="26.667"/>
	<circle style="fill:#FFFFFF;" cx="309.33" cy="202.67" r="26.667"/>
	<circle style="fill:#FFFFFF;" cx="202.67" cy="309.33" r="26.667"/>
	<circle style="fill:#FFFFFF;" cx="309.33" cy="309.33" r="26.667"/>
</g>
<path style="fill:#ED3800;" d="M437.02,74.981C388.668,26.629,324.38,0,256,0l0,0v74.666l0,0
	c100.147,0,181.333,81.186,181.333,181.333c0,100.148-81.186,181.333-181.333,181.333l0,0V512l0,0
	c68.38,0,132.667-26.629,181.02-74.98C485.372,388.668,512,324.38,512,256S485.372,123.333,437.02,74.981z"/>
<g>
</g>
<g>
</g>
<g>
</g>
<g>
</g>
<g>
</g>
<g>
</g>
<g>
</g>
<g>
</g>
<g>
</g>
<g>
</g>
<g>
</g>
<g>
</g>
<g>
</g>
<g>
</g>
<g>
</g>
</svg>
