<?xml version="1.0" encoding="iso-8859-1"?>
<!-- Generator: Adobe Illustrator 19.0.0, SVG Export Plug-In . SVG Version: 6.00 Build 0)  -->
<svg version="1.1" id="Capa_1" xmlns="http://www.w3.org/2000/svg" xmlns:xlink="http://www.w3.org/1999/xlink" x="0px" y="0px"
	 viewBox="0 0 512 512" style="enable-background:new 0 0 512 512;" xml:space="preserve">
<path style="fill:#FFB655;" d="M256,0C115.3,0,0,115.3,0,256s115.3,256,256,256s256-115.3,256-256S396.7,0,256,0z M256,421
	c-90.901,0-165-74.101-165-165c0-90.901,74.099-165,165-165s165,74.099,165,165C421,346.899,346.901,421,256,421z"/>
<g>
	<path style="fill:#FF9100;" d="M512,256c0,140.7-115.3,256-256,256v-91c90.901,0,165-74.101,165-165c0-90.901-74.099-165-165-165V0
		C396.7,0,512,115.3,512,256z"/>
	<path style="fill:#FF9100;" d="M256,61C148.599,61,61,148.599,61,256c0,107.399,87.599,195,195,195s195-87.601,195-195
		C451,148.599,363.401,61,256,61z M224.2,139.3c8.699-8.699,20.4-12.9,31.8-12.9c11.4,0,23.101,4.2,31.8,12.9
		c17.701,17.701,17.701,46.199,0,63.6c-8.699,8.699-20.4,13.2-31.8,13.2s-23.101-4.501-31.8-13.2
		C206.499,185.499,206.499,157,224.2,139.3z M139.3,287.8c-17.399-17.401-17.399-46.201,0-63.6c17.701-17.701,46.201-17.701,63.6,0
		c8.701,8.699,13.2,20.4,13.2,31.8s-4.499,23.099-13.2,31.8C185.501,305.499,157,305.499,139.3,287.8z M287.8,372.7
		c-8.699,8.699-20.4,12.9-31.8,12.9s-23.101-4.2-31.8-12.9c-17.701-17.701-17.701-46.201,0-63.602c8.699-8.699,20.4-13.2,31.8-13.2
		s23.101,4.501,31.8,13.2c9,8.701,13.2,20.101,13.2,31.8C301,352.299,296.8,363.999,287.8,372.7z M372.7,287.8
		c-17.701,17.699-46.201,17.699-63.6,0c-17.701-17.401-17.701-46.201,0-63.6c17.399-17.701,45.899-17.701,63.6,0
		C390.099,241.599,390.099,270.399,372.7,287.8z"/>
</g>
<path style="fill:#CC7400;" d="M256,61v65.4c11.4,0,23.101,4.2,31.8,12.9c17.701,17.701,17.701,46.199,0,63.6
	c-8.699,8.699-20.4,13.2-31.8,13.2v79.799c11.4,0,23.101,4.501,31.8,13.2c9,8.701,13.2,20.101,13.2,31.8
	c0,11.4-4.2,23.101-13.2,31.802c-8.699,8.699-20.4,12.9-31.8,12.9V451c107.401,0,195-87.601,195-195C451,148.599,363.401,61,256,61z
	 M372.7,287.8c-17.701,17.699-46.201,17.699-63.6,0c-17.701-17.401-17.701-46.201,0-63.6c17.399-17.701,45.899-17.701,63.6,0
	C390.099,241.599,390.099,270.399,372.7,287.8z"/>
<g>
</g>
<g>
</g>
<g>
</g>
<g>
</g>
<g>
</g>
<g>
</g>
<g>
</g>
<g>
</g>
<g>
</g>
<g>
</g>
<g>
</g>
<g>
</g>
<g>
</g>
<g>
</g>
<g>
</g>
</svg>
