<?xml version="1.0" encoding="iso-8859-1"?>
<!-- Generator: Adobe Illustrator 19.0.0, SVG Export Plug-In . SVG Version: 6.00 Build 0)  -->
<svg version="1.1" id="Capa_1" xmlns="http://www.w3.org/2000/svg" xmlns:xlink="http://www.w3.org/1999/xlink" x="0px" y="0px"
	 viewBox="0 0 512 512" style="enable-background:new 0 0 512 512;" xml:space="preserve">
<g>
	<g>
		<path d="M437.02,74.981C388.668,26.629,324.38,0,256,0S123.333,26.628,74.981,74.98C26.629,123.333,0,187.62,0,256
			s26.629,132.668,74.981,181.02C123.333,485.372,187.62,512,256,512s132.667-26.629,181.02-74.98
			C485.372,388.668,512,324.38,512,256S485.372,123.333,437.02,74.981z M256,452.333c-108.259,0-196.333-88.075-196.333-196.333
			c0-108.259,88.075-196.333,196.333-196.333S452.333,147.741,452.333,256S364.259,452.333,256,452.333z"/>
	</g>
</g>
<g>
	<g>
		<path d="M256,89.667c-91.717,0-166.333,74.617-166.333,166.333S164.284,422.333,256,422.333S422.333,347.717,422.333,256
			S347.717,89.667,256,89.667z M202.667,336C187.939,336,176,324.061,176,309.333c0-14.728,11.939-26.667,26.667-26.667
			c14.728,0,26.667,11.939,26.667,26.667C229.334,324.061,217.395,336,202.667,336z M202.667,229.333
			c-14.728,0-26.667-11.939-26.667-26.667C176,187.939,187.939,176,202.667,176c14.728,0,26.667,11.939,26.667,26.667
			C229.333,217.394,217.395,229.333,202.667,229.333z M309.333,336c-14.728,0-26.667-11.939-26.667-26.667
			c0-14.728,11.939-26.667,26.667-26.667c14.728,0,26.667,11.94,26.667,26.667C336,324.06,324.061,336,309.333,336z
			 M309.333,229.333c-14.728,0-26.667-11.939-26.667-26.667c0-14.727,11.939-26.667,26.667-26.667
			c14.728,0,26.667,11.94,26.667,26.668C336,217.394,324.061,229.333,309.333,229.333z"/>
	</g>
</g>
<g>
</g>
<g>
</g>
<g>
</g>
<g>
</g>
<g>
</g>
<g>
</g>
<g>
</g>
<g>
</g>
<g>
</g>
<g>
</g>
<g>
</g>
<g>
</g>
<g>
</g>
<g>
</g>
<g>
</g>
</svg>
