<?xml version="1.0" encoding="iso-8859-1"?>
<!-- Generator: Adobe Illustrator 19.0.0, SVG Export Plug-In . SVG Version: 6.00 Build 0)  -->
<svg version="1.1" id="Capa_1" xmlns="http://www.w3.org/2000/svg" xmlns:xlink="http://www.w3.org/1999/xlink" x="0px" y="0px"
	 viewBox="0 0 512.001 512.001" style="enable-background:new 0 0 512.001 512.001;" xml:space="preserve">
<path style="fill:#FFB123;" d="M437.02,74.981c-99.974-99.974-262.064-99.974-362.039,0s-99.974,262.064,0,362.039
	s262.064,99.974,362.039,0S536.994,174.955,437.02,74.981z M172.101,287.929c-17.634,0-31.929-14.295-31.929-31.929
	s14.295-31.929,31.929-31.929S204.03,238.366,204.03,256C204.031,273.634,189.736,287.929,172.101,287.929z M256.001,204.03
	c-17.634,0-31.929-14.295-31.929-31.929s14.295-31.929,31.929-31.929s31.929,14.295,31.929,31.929
	C287.93,189.735,273.635,204.03,256.001,204.03z M256.001,371.829c-17.634,0-31.929-14.295-31.929-31.929
	c0-17.634,14.295-31.929,31.929-31.929s31.929,14.295,31.929,31.929C287.93,357.533,273.635,371.829,256.001,371.829z
	 M339.9,287.929c-17.634,0-31.929-14.295-31.929-31.929s14.295-31.929,31.929-31.929s31.929,14.295,31.929,31.929
	C371.83,273.634,357.534,287.929,339.9,287.929z"/>
<path style="fill:#FF901D;" d="M259.244,0.039v140.296c16.111,1.625,28.686,15.227,28.686,31.766s-12.575,30.141-28.686,31.766
	v104.267c16.111,1.625,28.686,15.227,28.686,31.766s-12.575,30.141-28.686,31.766v140.296
	c64.431-0.811,128.614-25.78,177.776-74.942c99.974-99.974,99.974-262.064,0-362.039C387.858,25.818,323.675,0.85,259.244,0.039z
	 M339.9,287.929c-17.634,0-31.929-14.295-31.929-31.929s14.295-31.929,31.929-31.929s31.929,14.295,31.929,31.929
	C371.83,273.634,357.534,287.929,339.9,287.929z"/>
<path style="fill:#FF6D3A;" d="M437.02,74.981c-99.974-99.974-262.064-99.974-362.039,0c-99.974,99.974-99.974,262.064,0,362.039
	c99.974,99.974,262.064,99.974,362.039,0C536.994,337.045,536.994,174.955,437.02,74.981z M100.152,411.849
	c-86.073-86.073-86.073-225.625,0-311.699c86.073-86.073,225.625-86.073,311.699,0s86.073,225.625,0,311.699
	C325.777,497.923,186.225,497.923,100.152,411.849z"/>
<path style="fill:#ED5729;" d="M437.02,74.981c-5.643-5.643-11.493-10.95-17.509-15.956c0.027,0.086,0.044,0.169,0.072,0.256
	c47.193,56.62,66.129,128.822,56.807,197.956c-0.088,15.747-1.85,31.485-5.292,46.926c-0.002,0.009-0.004,0.018-0.006,0.027
	c-0.38,1.703-0.779,3.402-1.2,5.097c-0.008,0.033-0.017,0.066-0.026,0.1c-0.416,1.671-0.85,3.339-1.305,5.002
	c-0.016,0.058-0.033,0.115-0.049,0.173c-0.45,1.638-0.917,3.271-1.405,4.9c-0.026,0.088-0.055,0.175-0.081,0.262
	c-0.481,1.599-0.979,3.193-1.497,4.783c-0.038,0.117-0.079,0.233-0.117,0.35c-0.512,1.56-1.038,3.116-1.585,4.667
	c-0.051,0.143-0.105,0.285-0.155,0.427c-0.541,1.521-1.094,3.039-1.669,4.551c-0.069,0.182-0.143,0.363-0.213,0.545
	c-0.564,1.472-1.14,2.94-1.737,4.401c-0.088,0.216-0.182,0.429-0.271,0.644c-0.587,1.425-1.184,2.846-1.802,4.26
	c-0.113,0.258-0.233,0.514-0.347,0.772c-0.605,1.37-1.218,2.737-1.852,4.097c-0.136,0.291-0.279,0.578-0.416,0.869
	c-0.624,1.323-1.255,2.644-1.907,3.957c-0.164,0.33-0.337,0.656-0.502,0.985c-0.638,1.268-1.28,2.534-1.944,3.792
	c-0.201,0.38-0.412,0.756-0.614,1.135c-0.644,1.203-1.29,2.405-1.958,3.599c-0.235,0.419-0.481,0.834-0.719,1.252
	c-0.652,1.147-1.305,2.295-1.979,3.433c-0.271,0.457-0.554,0.908-0.828,1.363c-0.658,1.093-1.315,2.186-1.994,3.27
	c-0.312,0.499-0.639,0.991-0.956,1.488c-0.659,1.033-1.314,2.067-1.992,3.091c-0.359,0.543-0.734,1.078-1.098,1.618
	c-0.654,0.97-1.304,1.942-1.975,2.904c-0.41,0.588-0.837,1.167-1.254,1.751c-0.646,0.906-1.285,1.814-1.946,2.712
	c-0.467,0.634-0.952,1.26-1.426,1.89c-0.631,0.838-1.254,1.68-1.899,2.512c-0.534,0.689-1.088,1.368-1.631,2.052
	c-0.606,0.762-1.202,1.53-1.82,2.286c-0.615,0.754-1.251,1.496-1.878,2.244c-0.567,0.676-1.123,1.358-1.7,2.028
	c-0.73,0.85-1.482,1.687-2.227,2.529c-0.493,0.557-0.976,1.12-1.476,1.674c-0.923,1.021-1.869,2.029-2.814,3.036
	c-0.341,0.364-0.672,0.734-1.016,1.096c-1.299,1.367-2.619,2.721-3.96,4.062s-2.695,2.66-4.061,3.959
	c-0.406,0.386-0.821,0.757-1.229,1.14c-0.964,0.903-1.927,1.808-2.904,2.691c-0.573,0.518-1.157,1.018-1.734,1.529
	c-0.822,0.727-1.639,1.462-2.469,2.175c-0.677,0.582-1.365,1.144-2.048,1.716c-0.741,0.621-1.477,1.252-2.224,1.862
	c-0.771,0.629-1.553,1.238-2.33,1.855c-0.669,0.531-1.332,1.072-2.006,1.594c-0.844,0.655-1.7,1.288-2.552,1.929
	c-0.618,0.465-1.23,0.94-1.852,1.397c-0.907,0.667-1.824,1.314-2.739,1.965c-0.575,0.41-1.145,0.83-1.724,1.234
	c-0.965,0.674-1.941,1.326-2.915,1.983c-0.537,0.362-1.069,0.734-1.609,1.092c-1.027,0.679-2.064,1.337-3.099,1.998
	c-0.494,0.315-0.983,0.639-1.478,0.95c-1.093,0.685-2.196,1.348-3.298,2.012c-0.445,0.268-0.886,0.545-1.333,0.81
	c-1.152,0.683-2.313,1.343-3.474,2.003c-0.404,0.23-0.805,0.468-1.21,0.695c-1.209,0.677-2.427,1.331-3.645,1.983
	c-0.363,0.194-0.724,0.397-1.088,0.589c-1.268,0.669-2.544,1.316-3.822,1.959c-0.32,0.161-0.637,0.329-0.958,0.488
	c-1.318,0.655-2.645,1.288-3.973,1.915c-0.285,0.134-0.567,0.276-0.853,0.409c-1.371,0.64-2.749,1.258-4.131,1.868
	c-0.246,0.109-0.49,0.223-0.736,0.33c-1.422,0.622-2.852,1.222-4.284,1.812c-0.208,0.086-0.415,0.176-0.623,0.261
	c-1.467,0.599-2.94,1.177-4.417,1.743c-0.177,0.068-0.352,0.14-0.529,0.207c-1.515,0.576-3.036,1.131-4.561,1.673
	c-0.14,0.05-0.278,0.102-0.418,0.152c-1.561,0.551-3.127,1.081-4.697,1.595c-0.105,0.034-0.21,0.072-0.316,0.106
	c-1.603,0.523-3.211,1.024-4.823,1.509c-0.074,0.022-0.147,0.046-0.221,0.068c-1.637,0.491-3.28,0.96-4.926,1.412
	c-0.05,0.014-0.1,0.029-0.15,0.042c-1.672,0.458-3.348,0.894-5.028,1.312c-0.024,0.006-0.048,0.012-0.072,0.018
	c-1.699,0.422-3.403,0.823-5.11,1.203c-0.006,0.001-0.011,0.003-0.017,0.004c-15.442,3.442-31.181,5.205-46.928,5.293
	c-69.134,9.321-141.335-9.615-197.956-56.807c0.153,0.184,0.272,0.406,0.359,0.663c4.827,5.757,9.928,11.362,15.341,16.775
	c99.974,99.974,262.064,99.974,362.039,0C536.994,337.045,536.994,174.955,437.02,74.981z"/>
<path style="fill:#FF6D3A;" d="M256.001,84.087c-94.945,0-171.913,76.968-171.913,171.913s76.968,171.913,171.913,171.913
	S427.914,350.945,427.914,256S350.946,84.087,256.001,84.087z M172.151,287.911c-17.624,0-31.911-14.287-31.911-31.911
	s14.287-31.911,31.911-31.911s31.911,14.287,31.911,31.911C204.061,273.624,189.774,287.911,172.151,287.911z M256.001,204.06
	c-17.624,0-31.91-14.287-31.911-31.911c0-17.624,14.287-31.911,31.911-31.911s31.911,14.287,31.911,31.911
	S273.625,204.06,256.001,204.06z M256.001,371.761c-17.624,0-31.911-14.287-31.911-31.911c0-17.624,14.287-31.911,31.911-31.911
	s31.91,14.287,31.911,31.911C287.912,357.474,273.625,371.761,256.001,371.761z M339.851,287.911
	c-17.624,0-31.911-14.287-31.911-31.911c0-17.624,14.287-31.911,31.911-31.911c17.624,0,31.911,14.287,31.911,31.911
	S357.475,287.911,339.851,287.911z"/>
<path style="fill:#ED5729;" d="M427.914,256c0-55.43-26.241-104.724-66.97-136.161c22.411,29.035,35.752,65.429,35.752,104.944
	c0,94.945-76.968,171.913-171.913,171.913c-39.515,0-75.909-13.341-104.944-35.752c31.437,40.729,80.731,66.969,136.161,66.969
	C350.946,427.913,427.914,350.945,427.914,256z"/>
<g>
</g>
<g>
</g>
<g>
</g>
<g>
</g>
<g>
</g>
<g>
</g>
<g>
</g>
<g>
</g>
<g>
</g>
<g>
</g>
<g>
</g>
<g>
</g>
<g>
</g>
<g>
</g>
<g>
</g>
</svg>
