<?xml version="1.0" encoding="iso-8859-1"?>
<!-- Generator: Adobe Illustrator 19.0.0, SVG Export Plug-In . SVG Version: 6.00 Build 0)  -->
<svg version="1.1" id="Layer_1" xmlns="http://www.w3.org/2000/svg" xmlns:xlink="http://www.w3.org/1999/xlink" x="0px" y="0px"
	 viewBox="0 0 512 512" style="enable-background:new 0 0 512 512;" xml:space="preserve">
<circle style="fill:#FF5023;" cx="254.803" cy="255.998" r="254.803"/>
<circle style="fill:#FF7956;" cx="254.803" cy="255.998" r="221.155"/>
<circle style="fill:#FF6243;" cx="254.803" cy="255.998" r="168.397"/>
<g>
	<path style="fill:#DFDFE2;" d="M213.828,231.688c-3.342,1.081-6.909,1.665-10.611,1.665c-19.027,0-34.452-15.424-34.452-34.452
		s15.424-34.452,34.452-34.452s34.452,15.424,34.452,34.452c0,3.726-0.592,7.314-1.686,10.674L213.828,231.688z"/>
	<path style="fill:#DFDFE2;" d="M284.085,207.496c-0.705-2.747-1.081-5.627-1.081-8.594c0-19.027,15.424-34.452,34.452-34.452
		c19.027,0,34.452,15.424,34.452,34.452s-15.424,34.452-34.452,34.452c-3.128,0-6.16-0.418-9.042-1.199L284.085,207.496z"/>
	<path style="fill:#DFDFE2;" d="M236.193,298.609c0.96,3.168,1.477,6.529,1.477,10.01c0,19.027-15.424,34.452-34.452,34.452
		s-34.452-15.424-34.452-34.452c0-19.027,15.424-34.452,34.452-34.452c3.969,0,7.78,0.671,11.329,1.906L236.193,298.609z"/>
	<path style="fill:#DFDFE2;" d="M305.855,276.17c3.625-1.297,7.53-2.002,11.601-2.002c19.027,0,34.452,15.424,34.452,34.452
		c0,19.027-15.424,34.452-34.452,34.452c-19.027,0-34.452-15.424-34.452-34.452c0-3.382,0.487-6.648,1.394-9.736L305.855,276.17z"/>
</g>
<path style="fill:#AB2300;" d="M330.818,310.878c0,4.104-1.607,8.201-4.801,11.268c-6.222,5.977-16.111,5.777-22.086-0.446
	L194.212,207.46c-5.978-6.222-5.777-16.111,0.446-22.086c6.222-5.977,16.111-5.777,22.086,0.446l109.718,114.239
	C329.371,303.088,330.818,306.985,330.818,310.878z"/>
<g>
	<path style="fill:#891C00;" d="M203.22,324.24c-4.104,0-8.201-1.607-11.268-4.801c-5.977-6.222-5.777-16.111,0.446-22.086
		l114.239-109.717c6.222-5.978,16.111-5.777,22.086,0.446c5.977,6.222,5.777,16.111-0.446,22.086L214.038,319.885
		C211.009,322.795,207.111,324.24,203.22,324.24z"/>
	<path style="opacity:0.15;fill:#891C00;enable-background:new    ;" d="M401.284,45.835
		c28.155,40.986,44.644,90.609,44.644,144.091c0,140.726-114.081,254.807-254.807,254.807c-53.482,0-103.105-16.49-144.091-44.644
		c45.928,66.86,122.918,110.716,210.163,110.716C397.919,510.804,512,396.724,512,255.997
		C512,168.754,468.143,91.763,401.284,45.835z"/>
</g>
<g>
</g>
<g>
</g>
<g>
</g>
<g>
</g>
<g>
</g>
<g>
</g>
<g>
</g>
<g>
</g>
<g>
</g>
<g>
</g>
<g>
</g>
<g>
</g>
<g>
</g>
<g>
</g>
<g>
</g>
</svg>
