<?xml version="1.0" encoding="iso-8859-1"?>
<!-- Generator: Adobe Illustrator 19.0.0, SVG Export Plug-In . SVG Version: 6.00 Build 0)  -->
<svg version="1.1" id="Capa_1" xmlns="http://www.w3.org/2000/svg" xmlns:xlink="http://www.w3.org/1999/xlink" x="0px" y="0px"
	 viewBox="0 0 339.2 339.2" style="enable-background:new 0 0 339.2 339.2;" xml:space="preserve">
<g>
	<g>
		<path d="M169.6,0C76,0,0,76,0,169.6s76,169.6,169.6,169.6s169.6-76,169.6-169.6S263.2,0,169.6,0z M169.6,323.2
			C84.8,323.2,16,254.4,16,169.6S84.8,16,169.6,16s153.6,68.8,153.6,153.6S254.4,323.2,169.6,323.2z"/>
	</g>
</g>
<g>
	<g>
		<path d="M169.6,48.8c-66.4,0-120.8,54.4-120.8,120.8c0,66.4,54.4,120.8,120.8,120.8S290.4,236,290.4,169.6
			C290.4,103.2,236,48.8,169.6,48.8z M169.6,274.4c-57.6,0-104.8-47.2-104.8-104.8C64.8,112,112,64.8,169.6,64.8
			S274.4,112,274.4,169.6C274.4,227.2,227.2,274.4,169.6,274.4z"/>
	</g>
</g>
<g>
	<g>
		<circle cx="128.8" cy="134.4" r="18.4"/>
	</g>
</g>
<g>
	<g>
		<circle cx="210.4" cy="134.4" r="18.4"/>
	</g>
</g>
<g>
	<g>
		<circle cx="128.8" cy="204.8" r="18.4"/>
	</g>
</g>
<g>
	<g>
		<circle cx="210.4" cy="204.8" r="18.4"/>
	</g>
</g>
<g>
</g>
<g>
</g>
<g>
</g>
<g>
</g>
<g>
</g>
<g>
</g>
<g>
</g>
<g>
</g>
<g>
</g>
<g>
</g>
<g>
</g>
<g>
</g>
<g>
</g>
<g>
</g>
<g>
</g>
</svg>
