<svg id="Capa_1" enable-background="new 0 0 512 512" height="512" viewBox="0 0 512 512" width="512" xmlns="http://www.w3.org/2000/svg"><g><path d="m256 0c-140.944 0-256 115.062-256 256 0 140.944 115.062 256 256 256 140.944 0 256-115.062 256-256 0-140.944-115.062-256-256-256zm-64 367c-25.916 0-47-21.084-47-47s21.084-47 47-47 47 21.084 47 47-21.084 47-47 47zm0-128c-25.916 0-47-21.084-47-47s21.084-47 47-47 47 21.084 47 47-21.084 47-47 47zm128 128c-25.916 0-47-21.084-47-47s21.084-47 47-47 47 21.084 47 47-21.084 47-47 47zm0-128c-25.916 0-47-21.084-47-47s21.084-47 47-47 47 21.084 47 47-21.084 47-47 47z" fill="#ffb454"/><path d="m256 0v512c140.944 0 256-115.062 256-256 0-140.944-115.062-256-256-256zm64 367c-25.916 0-47-21.084-47-47s21.084-47 47-47 47 21.084 47 47-21.084 47-47 47zm0-128c-25.916 0-47-21.084-47-47s21.084-47 47-47 47 21.084 47 47-21.084 47-47 47z" fill="#ff8659"/><path d="m256 65c-105.32 0-191 85.68-191 191s85.68 191 191 191 191-85.68 191-191-85.68-191-191-191zm-64 302c-25.92 0-47-21.08-47-47s21.08-47 47-47c7.5 0 14.59 1.76 20.88 4.9 9.18 4.56 16.66 12.04 21.22 21.22 3.14 6.29 4.9 13.38 4.9 20.88 0 25.92-21.08 47-47 47zm42.1-154.12c-4.56 9.18-12.04 16.66-21.22 21.22-6.29 3.14-13.38 4.9-20.88 4.9-25.92 0-47-21.08-47-47s21.08-47 47-47 47 21.08 47 47c0 7.5-1.76 14.59-4.9 20.88zm85.9 154.12c-25.916 0-47-21.084-47-47s21.084-47 47-47 47 21.084 47 47-21.084 47-47 47zm0-128c-25.916 0-47-21.084-47-47s21.084-47 47-47 47 21.084 47 47-21.084 47-47 47z" fill="#ffe278"/><path d="m256 65v382c105.32 0 191-85.68 191-191s-85.68-191-191-191zm64 302c-25.92 0-47-21.08-47-47 0-7.5 1.76-14.59 4.9-20.88 4.56-9.18 12.04-16.66 21.22-21.22 6.29-3.14 13.38-4.9 20.88-4.9 25.92 0 47 21.08 47 47s-21.08 47-47 47zm0-128c-7.5 0-14.59-1.76-20.88-4.9-9.18-4.56-16.66-12.04-21.22-21.22-3.14-6.29-4.9-13.38-4.9-20.88 0-25.92 21.08-47 47-47s47 21.08 47 47-21.08 47-47 47z" fill="#ffb454"/><path d="m299.12 277.9c-9.18 4.56-16.66 12.04-21.22 21.22l-65.02-65.02c9.18-4.56 16.66-12.04 21.22-21.22l21.9 21.9z" fill="#c18659"/><path d="m299.12 277.9c-9.18 4.56-16.66 12.04-21.22 21.22l-21.9-21.9v-42.44z" fill="#865240"/><path d="m299.12 234.1-65.02 65.02c-4.56-9.18-12.04-16.66-21.22-21.22l43.12-43.12 21.9-21.9c4.56 9.18 12.04 16.66 21.22 21.22z" fill="#865240"/><path d="m299.12 234.1-43.12 43.12v-42.44l21.9-21.9c4.56 9.18 12.04 16.66 21.22 21.22z" fill="#4f4540"/></g></svg>