<svg id="Layer_1" enable-background="new 0 0 512 512" height="512" viewBox="0 0 512 512" width="512" xmlns="http://www.w3.org/2000/svg"><g><path d="m256 0c-141.159 0-256 114.841-256 256s114.841 256 256 256 256-114.841 256-256-114.841-256-256-256zm0 417.733c-89.18 0-161.733-72.553-161.733-161.733s72.553-161.733 161.733-161.733 161.733 72.553 161.733 161.733-72.553 161.733-161.733 161.733z" fill="#f89c53"/><path d="m256 94.267c89.18 0 161.733 72.553 161.733 161.733s-72.553 161.733-161.733 161.733v94.267c141.159 0 256-114.841 256-256s-114.841-256-256-256z" fill="#f2685b"/><path d="m256 64.267c-105.722 0-191.733 86.011-191.733 191.733s86.011 191.733 191.733 191.733 191.733-86.011 191.733-191.733-86.011-191.733-191.733-191.733zm0 56.233c25.989 0 47.133 21.145 47.133 47.134s-21.144 47.133-47.133 47.133-47.133-21.144-47.133-47.133 21.144-47.134 47.133-47.134zm-88.366 182.633c-25.989 0-47.134-21.144-47.134-47.133s21.145-47.133 47.134-47.133 47.133 21.144 47.133 47.133-21.144 47.133-47.133 47.133zm88.366 88.367c-25.989 0-47.133-21.145-47.133-47.134s21.144-47.133 47.133-47.133 47.133 21.144 47.133 47.133-21.144 47.134-47.133 47.134zm88.366-88.367c-25.989 0-47.133-21.144-47.133-47.133s21.144-47.133 47.133-47.133 47.134 21.144 47.134 47.133-21.145 47.133-47.134 47.133z" fill="#fdd04b"/><path d="m256 120.5c25.989 0 47.133 21.145 47.133 47.134s-21.144 47.133-47.133 47.133v82.467c25.989 0 47.133 21.144 47.133 47.133s-21.144 47.133-47.133 47.133v56.233c105.722 0 191.733-86.011 191.733-191.733s-86.011-191.733-191.733-191.733zm88.366 182.633c-25.989 0-47.133-21.144-47.133-47.133s21.144-47.133 47.133-47.133 47.134 21.144 47.134 47.133-21.145 47.133-47.134 47.133z" fill="#f89c53"/></g></svg>